<?xml version="1.0" standalone="no"?>
<!DOCTYPE svg PUBLIC "-//W3C//DTD SVG 20010904//EN"
 "http://www.w3.org/TR/2001/REC-SVG-20010904/DTD/svg10.dtd">
<svg version="1.0" xmlns="http://www.w3.org/2000/svg"
 width="854.000000pt" height="854.000000pt" viewBox="0 0 854.000000 854.000000"
 preserveAspectRatio="xMidYMid meet">
<metadata>
Created by potrace 1.14, written by Peter Selinger 2001-2017
</metadata>
<g transform="translate(0.000000,854.000000) scale(0.100000,-0.100000)"
fill="#000000" stroke="none">
<path d="M4417 7424 c-3 -3 -45 -7 -94 -9 -48 -1 -106 -8 -128 -13 -22 -6 -51
-13 -65 -16 -36 -7 -166 -59 -230 -92 -98 -52 -157 -130 -190 -253 -31 -115
-47 -220 -48 -312 -1 -63 -6 -105 -12 -109 -7 -4 -10 -15 -8 -26 2 -10 -6 -22
-18 -29 -17 -8 -21 -18 -19 -50 7 -96 43 -197 112 -307 45 -73 56 -97 76 -158
31 -95 36 -117 43 -180 10 -78 9 -333 -1 -375 -19 -84 -140 -171 -323 -230
-44 -14 -92 -28 -105 -31 -41 -7 -98 -34 -92 -44 8 -13 90 -4 215 24 86 19
115 13 189 -36 24 -16 69 -42 101 -58 76 -38 100 -72 115 -159 9 -55 21 -250
30 -497 9 -223 21 -422 31 -514 6 -52 5 -110 -5 -162 0 -4 -15 -21 -32 -39
l-31 -31 30 -18 c30 -18 39 -34 48 -87 6 -35 1 -31 69 -49 78 -20 87 -16 70
33 -12 36 -17 66 -30 181 -8 64 -14 111 -21 147 -5 32 -10 74 -19 165 -3 30
-7 71 -10 90 -2 19 -7 73 -10 120 -4 47 -8 101 -10 120 -8 65 -18 284 -18 396
-1 172 21 214 120 228 33 4 78 -18 68 -35 -15 -24 60 -30 180 -14 22 3 58 8
80 10 22 3 58 7 80 10 22 3 69 8 105 11 96 9 157 34 261 109 97 70 161 107
192 112 11 2 32 -8 49 -22 28 -24 33 -25 141 -19 114 5 131 6 247 20 94 10
111 12 149 13 19 1 32 3 30 5 -12 12 -127 19 -321 20 l-217 1 -43 41 c-24 22
-66 57 -94 78 -155 115 -202 301 -149 586 3 19 23 86 45 150 21 63 41 142 45
175 8 84 13 95 39 95 34 0 59 34 73 100 7 32 5 169 -3 182 -12 19 -14 33 -19
148 -6 147 -23 230 -46 230 -5 0 -9 8 -9 18 0 9 -12 30 -27 47 -18 19 -22 27
-10 22 34 -13 16 10 -45 60 -178 142 -314 206 -469 218 -21 2 -42 6 -47 9 -5
3 -12 3 -15 0z m83 -44 c0 -5 -11 -10 -24 -10 -14 0 -28 5 -31 10 -4 6 7 10
24 10 17 0 31 -4 31 -10z m218 -289 c11 -20 39 -83 62 -141 23 -58 46 -110 50
-115 5 -6 13 -30 18 -53 8 -35 7 -44 -6 -51 -17 -10 -72 12 -72 29 0 4 -25 21
-55 35 -87 43 -196 34 -315 -25 -72 -36 -93 -35 -166 9 -64 39 -69 40 -138 36
-39 -3 -82 -7 -96 -10 -13 -2 -53 -7 -87 -11 -52 -5 -63 -3 -63 9 0 27 26 76
50 95 61 47 216 109 294 117 62 6 132 28 206 65 65 32 110 47 165 56 22 3 41
7 43 9 1 1 22 -2 46 -8 35 -8 48 -17 64 -46z m-399 -416 c22 -24 52 -52 65
-60 23 -15 27 -15 63 6 l39 22 73 -23 c64 -20 79 -21 124 -11 29 6 66 14 82
17 17 3 36 7 43 9 17 6 52 -12 52 -26 0 -6 15 -36 34 -67 34 -56 38 -83 22
-147 -2 -11 -9 -42 -15 -70 -24 -113 -86 -305 -119 -374 -15 -29 -35 -57 -47
-61 -22 -8 -73 -4 -120 10 -116 35 -275 31 -289 -7 -8 -21 21 -59 58 -77 49
-23 93 -72 104 -116 9 -37 8 -278 -2 -370 -2 -25 -7 -74 -11 -109 -10 -100
-25 -134 -60 -140 -45 -7 -221 -6 -290 2 -136 16 -153 21 -220 67 -54 37 -85
86 -85 135 0 37 38 135 52 135 5 0 8 5 8 10 0 6 17 34 39 63 57 77 83 135 87
195 5 79 29 110 147 188 37 25 67 46 67 48 0 2 -33 -2 -72 -8 -128 -20 -176
-1 -238 95 -30 46 -122 232 -151 307 -5 12 -13 32 -19 45 -30 71 -11 133 63
210 49 50 82 68 113 62 173 -31 251 -20 306 45 18 22 38 39 44 40 6 0 30 -20
53 -45z m471 -1166 c25 -49 61 -207 62 -267 0 -31 -6 -48 -19 -57 -27 -21
-148 -57 -180 -53 -27 3 -28 6 -28 53 1 51 37 173 83 280 43 100 52 105 82 44z"/>
<path d="M4287 6476 c-32 -30 -37 -39 -37 -80 0 -35 -5 -50 -21 -64 -96 -77
-107 -95 -68 -107 20 -7 46 -13 61 -14 4 -1 20 -15 37 -33 25 -26 38 -32 79
-34 59 -3 125 24 164 68 15 17 28 34 28 37 -1 11 -25 36 -48 49 -12 6 -32 18
-44 25 -31 17 -38 27 -28 46 43 88 42 94 -18 125 -45 23 -64 20 -105 -18z"/>
<path d="M4199 5490 c-15 -42 5 -125 28 -116 8 3 17 6 19 6 2 0 0 8 -5 18 -5
9 -16 35 -25 57 -8 22 -16 38 -17 35z"/>
<path d="M6037 6394 c-1 -1 -32 -5 -69 -8 -77 -8 -93 -11 -203 -32 -105 -21
-178 -41 -247 -71 -61 -27 -60 -25 -97 -153 -28 -96 -24 -84 -49 -165 -80
-264 -25 -421 186 -526 60 -30 76 -34 147 -33 44 0 96 3 115 7 19 4 48 9 64
12 38 8 97 38 117 61 47 52 105 223 111 324 4 56 21 70 93 77 78 8 143 -12
182 -56 18 -20 33 -39 33 -43 0 -3 26 -23 58 -44 57 -38 163 -140 231 -224 20
-25 48 -58 64 -75 47 -51 80 -114 68 -129 -12 -14 -77 -29 -211 -50 -19 -3
-44 -7 -55 -10 -11 -2 -40 -7 -65 -10 -25 -3 -56 -8 -70 -11 -14 -3 -43 -8
-65 -11 -22 -2 -78 -11 -125 -19 -217 -36 -228 -36 -340 -4 -91 27 -118 30
-122 14 -4 -12 71 -54 120 -68 39 -11 270 -18 286 -9 12 7 67 8 71 2 9 -15 18
-94 18 -160 1 -127 -22 -246 -49 -257 -17 -6 -48 23 -58 54 -4 12 -13 26 -20
32 -11 9 -15 6 -20 -13 -10 -39 -53 -75 -141 -117 -111 -52 -125 -69 -200
-244 -25 -61 -53 -123 -60 -140 -7 -16 -23 -59 -35 -95 -12 -36 -29 -80 -37
-99 -18 -41 -96 -121 -118 -121 -8 0 -15 -4 -15 -9 0 -5 -8 -11 -17 -14 -67
-21 -210 -80 -225 -94 -32 -29 -10 -40 99 -47 77 -6 87 -11 78 -45 -19 -72 -1
-104 53 -95 47 9 53 -1 32 -49 -16 -37 -18 -50 -9 -76 6 -17 15 -31 19 -31 4
0 14 -23 20 -51 17 -70 8 -174 -19 -226 -12 -24 -19 -43 -16 -43 2 0 0 -12 -6
-26 -5 -15 -12 -75 -14 -133 -5 -113 -7 -122 -19 -161 -10 -29 -71 -86 -106
-98 -99 -35 -104 -35 -117 17 -6 24 -19 40 -42 52 -65 35 -222 11 -221 -34 1
-29 26 -47 153 -109 42 -21 77 -43 77 -50 0 -12 -59 -52 -174 -122 l-39 -23
72 -5 c79 -6 106 -20 91 -48 -12 -22 -39 -33 -165 -65 -191 -50 -268 -57 -650
-56 -389 1 -726 16 -820 38 -11 2 -33 6 -50 9 -75 13 -163 38 -192 56 -65 39
-93 150 -69 278 7 36 11 115 11 175 -2 96 -5 131 -20 230 -8 57 -27 107 -37
97 -10 -10 -15 -96 -22 -347 -5 -181 -9 -199 -56 -304 -22 -48 -41 -96 -43
-107 -2 -10 -7 -30 -10 -44 -10 -40 -18 -109 -23 -205 -2 -49 -7 -121 -9 -160
-3 -38 -7 -149 -10 -245 -5 -186 -12 -333 -20 -390 -3 -19 -7 -55 -10 -80 -4
-49 -24 -149 -39 -198 -3 -9 -7 -28 -10 -42 -3 -14 -13 -56 -24 -95 -22 -86
-22 -119 0 -123 33 -6 69 83 97 243 6 33 13 71 16 85 3 14 8 39 10 55 3 17 8
37 10 45 2 8 6 32 10 54 3 21 7 41 10 45 2 4 6 18 9 32 22 116 44 177 76 211
23 25 62 28 192 16 85 -8 100 -4 122 33 23 39 53 35 83 -11 49 -78 54 -82 124
-87 71 -6 163 9 184 31 7 7 18 32 25 54 9 35 15 42 36 42 20 0 28 -9 43 -43
13 -31 34 -54 76 -82 l57 -40 -6 -125 c-4 -69 -9 -159 -12 -200 -9 -138 -12
-303 -5 -329 6 -20 15 -27 38 -29 38 -4 52 13 61 75 7 53 7 246 -1 361 -4 51
-1 84 9 107 7 19 16 56 19 82 9 78 66 113 113 69 17 -16 28 -119 25 -246 -1
-125 -9 -245 -15 -256 -10 -19 -3 -187 8 -191 18 -6 25 24 30 117 4 95 13 187
19 210 2 8 6 31 9 50 8 48 12 68 26 120 7 25 13 50 15 55 3 14 14 43 33 88 23
55 43 64 172 72 41 3 110 7 154 10 43 3 82 7 85 10 4 2 25 6 47 9 160 20 375
94 549 190 l50 27 16 -38 c9 -21 29 -83 44 -138 15 -55 30 -107 33 -115 2 -8
6 -22 7 -30 1 -8 9 -51 18 -95 14 -72 23 -119 32 -180 12 -83 15 -109 20 -174
11 -152 21 -191 50 -191 8 0 18 15 23 33 9 36 8 231 -2 322 -10 86 -18 147
-22 170 -2 10 -6 37 -10 59 -3 22 -19 90 -35 150 -63 231 -66 254 -61 413 7
236 7 484 0 538 -8 60 -10 69 -36 162 -16 57 -20 95 -17 185 1 62 5 124 9 138
3 14 8 36 10 50 9 54 40 160 101 343 62 186 75 238 80 302 4 41 4 42 15 25 16
-24 28 4 28 64 -1 158 54 259 144 271 38 4 245 71 398 128 220 82 300 117 300
133 0 8 8 14 18 14 68 2 199 39 297 85 65 30 206 84 220 85 3 0 18 6 34 14 15
8 39 17 53 20 57 10 126 48 132 72 5 17 13 24 30 24 14 0 26 -6 29 -12 7 -22
61 4 65 30 3 20 8 22 33 17 24 -6 30 -4 27 8 -4 19 3 21 42 12 36 -8 56 1 41
19 -15 18 -3 26 24 16 26 -10 36 -4 28 16 -4 12 0 14 22 8 21 -5 31 -2 41 11
7 10 20 15 28 12 16 -6 40 16 29 27 -4 4 6 6 23 4 16 -1 51 8 77 21 60 29 150
110 152 137 0 12 10 33 22 47 36 46 7 137 -84 266 -51 72 -224 249 -288 296
-22 17 -47 38 -56 47 -9 10 -19 18 -22 18 -3 0 -34 20 -69 44 -35 24 -117 76
-183 116 -124 75 -139 84 -240 140 -33 19 -62 36 -65 39 -3 4 -21 14 -40 25
-19 10 -62 33 -95 51 -33 18 -80 44 -105 58 -25 14 -115 61 -200 105 -177 91
-241 112 -385 128 -42 5 -274 12 -278 8z m322 -58 c29 -10 61 -45 102 -112 30
-48 35 -51 93 -63 67 -14 237 -69 331 -108 211 -88 334 -153 600 -316 37 -22
210 -151 244 -182 203 -179 324 -336 324 -419 0 -59 -28 -138 -61 -169 -32
-31 -120 -71 -252 -117 -52 -18 -171 -59 -265 -92 -93 -33 -177 -61 -185 -63
-8 -2 -49 -16 -90 -30 -146 -51 -311 -95 -373 -99 -76 -6 -94 -12 -108 -37 -5
-11 -19 -19 -30 -19 -25 0 -75 -25 -103 -52 -70 -66 -148 -52 -137 24 2 18
-25 65 -34 61 -15 -8 -35 -1 -35 12 0 21 73 67 175 110 139 58 141 66 16 62
-124 -4 -196 6 -223 30 -18 16 -20 28 -15 138 5 135 9 154 35 198 18 32 84 72
132 80 14 3 36 8 50 11 14 3 41 7 60 10 19 3 55 7 80 11 104 14 131 16 263 20
151 4 140 6 252 -66 95 -62 215 -107 215 -82 0 9 -153 113 -166 113 -3 0 -18
10 -33 23 -15 12 -40 31 -56 42 -31 22 -323 263 -370 306 -16 15 -70 62 -120
106 -49 43 -103 90 -120 105 -16 15 -39 35 -51 45 -43 37 -149 130 -208 182
-74 65 -140 111 -158 111 -8 0 -21 -15 -29 -32 -21 -48 -63 -57 -123 -27 -25
12 -46 26 -46 31 0 4 -4 8 -9 8 -5 0 -26 8 -47 17 -22 9 -43 18 -49 19 -5 1
-46 9 -90 18 -105 22 -165 49 -165 74 0 31 25 43 97 47 86 4 151 12 263 31 25
4 48 7 52 6 4 -1 55 7 113 18 59 11 110 18 114 16 3 -2 14 0 25 3 23 9 83 7
115 -3z m-743 -3897 c3 -89 -96 -253 -159 -267 -61 -12 -62 -11 -62 48 0 170
64 264 175 258 44 -3 45 -4 46 -39z m-2406 -54 c49 -10 76 -14 125 -19 28 -3
61 -8 75 -11 14 -3 43 -7 65 -10 22 -3 63 -8 90 -11 49 -6 246 -37 315 -49 19
-4 45 -13 57 -20 11 -8 48 -19 82 -24 33 -5 69 -15 80 -20 76 -41 66 -148 -21
-243 -70 -75 -96 -117 -101 -161 -3 -21 -9 -43 -14 -48 -14 -14 -50 31 -102
124 -22 42 -51 83 -63 91 -21 15 -24 14 -58 -17 -60 -58 -141 -108 -192 -121
-23 -5 -30 -2 -43 24 -8 16 -17 42 -19 57 -6 44 -23 81 -43 91 -10 5 -45 10
-78 11 -89 3 -127 16 -152 53 -45 67 -120 275 -109 303 5 13 40 13 106 0z
m2093 -54 c28 -11 28 -12 23 -74 -13 -155 -30 -185 -126 -220 -62 -23 -135
-37 -257 -51 -131 -15 -168 -17 -325 -21 -144 -4 -168 -2 -168 10 0 9 -5 23
-10 33 -6 9 -28 68 -50 130 -45 130 -50 123 85 106 22 -3 120 -7 218 -9 203
-5 243 4 308 66 24 23 47 35 69 37 19 1 35 4 37 6 8 8 170 -3 196 -13z m-999
-96 c9 -14 14 -25 11 -25 -3 0 -1 -9 5 -20 29 -55 1 -187 -45 -208 -39 -18
-56 12 -56 99 0 150 40 223 85 154z m-1149 -255 c14 -16 16 -30 12 -77 -8 -78
-10 -84 -29 -112 -14 -20 -20 -22 -32 -12 -40 33 -47 181 -10 208 24 18 38 16
59 -7z"/>
<path d="M6856 4788 c3 -5 21 -8 39 -6 44 3 35 18 -10 16 -19 -1 -32 -5 -29
-10z"/>
<path d="M2547 6363 c-4 -3 -7 -10 -7 -14 0 -7 111 -33 185 -44 22 -3 51 -7
65 -10 48 -8 140 -16 140 -12 0 4 -123 40 -179 52 -162 37 -192 41 -204 28z"/>
<path d="M2322 6278 c-4 -4 -29 -15 -57 -26 -81 -32 -188 -83 -218 -104 -15
-11 -40 -21 -56 -23 -42 -6 -352 -164 -576 -295 -22 -13 -53 -30 -70 -38 -16
-9 -32 -18 -35 -21 -3 -4 -30 -19 -60 -35 -30 -16 -57 -32 -60 -36 -3 -4 -12
-10 -20 -13 -8 -4 -27 -15 -41 -25 -15 -9 -53 -33 -85 -52 -33 -19 -63 -38
-69 -42 -95 -76 -153 -118 -172 -123 -13 -3 -33 -13 -46 -22 -52 -40 -237
-236 -273 -290 -33 -50 -104 -186 -104 -199 0 -3 34 37 77 88 94 114 289 310
403 404 110 91 236 184 249 184 6 0 11 3 11 8 0 4 20 18 45 32 25 14 45 28 45
32 0 5 4 8 9 8 4 0 48 23 97 51 96 56 305 162 449 229 50 23 149 70 220 105
125 61 189 84 248 91 16 2 38 9 49 15 27 15 108 89 108 100 0 10 -57 7 -68 -3z"/>
<path d="M2970 6255 c0 -8 9 -16 20 -16 11 -1 26 -2 33 -3 17 -3 38 14 31 25
-3 5 -23 9 -45 9 -28 0 -39 -4 -39 -15z"/>
<path d="M3242 6203 c11 -43 -45 -77 -147 -88 -33 -4 -74 -8 -92 -10 -17 -2
-40 -8 -52 -14 -12 -7 -21 -9 -21 -7 0 5 -42 -12 -140 -57 -71 -32 -122 -42
-149 -27 -18 9 -21 19 -19 58 l3 47 -33 -2 c-39 -1 -82 -37 -82 -67 0 -63
-115 -173 -214 -206 -56 -18 -148 -99 -291 -255 -263 -289 -441 -466 -570
-570 -28 -22 -52 -43 -55 -46 -3 -3 -27 -20 -55 -39 -27 -19 -52 -36 -55 -39
-3 -3 -27 -18 -53 -32 -47 -25 -61 -43 -34 -45 23 -1 76 25 147 73 40 26 84
56 98 65 13 9 28 20 31 25 3 5 28 25 56 44 27 18 56 40 63 47 8 7 38 24 67 38
51 23 110 32 228 34 21 0 37 5 37 12 0 6 -3 9 -6 5 -11 -10 -86 23 -110 49
-13 14 -29 22 -34 19 -24 -15 11 47 42 76 10 9 18 19 18 23 0 3 8 14 18 24 9
10 49 54 87 97 178 201 294 293 503 397 71 35 93 41 147 42 36 0 69 -4 75 -10
6 -6 13 -33 16 -60 10 -88 12 -92 57 -184 18 -36 56 -89 88 -120 50 -51 62
-57 125 -71 92 -20 219 -18 261 4 90 47 204 216 227 335 19 99 15 241 -8 257
-9 7 -16 22 -16 35 0 23 -56 85 -124 135 -35 25 -39 26 -34 8z"/>
<path d="M2980 5248 c0 -5 9 -9 20 -9 11 -1 23 -2 28 -3 77 -21 252 -24 252
-4 0 4 -15 10 -32 13 -52 9 -268 11 -268 3z"/>
<path d="M2654 5170 c-71 -34 -140 -47 -244 -43 -202 6 -351 6 -357 0 -16 -16
34 -30 109 -30 34 0 47 -4 51 -16 9 -35 -4 -358 -18 -429 -1 -9 -6 -35 -9 -58
-7 -37 -10 -41 -33 -38 -111 12 -580 20 -590 10 -3 -2 4 -15 16 -27 38 -41 24
-62 -52 -79 -85 -19 -309 -27 -422 -15 -125 13 -149 16 -154 19 -3 2 -26 7
-51 10 -25 4 -63 11 -85 16 -22 6 -47 12 -56 14 -145 36 -326 126 -387 195
-19 23 -22 36 -21 104 1 72 -4 98 -16 85 -3 -2 -7 -29 -10 -59 -3 -30 -8 -60
-10 -66 -2 -7 -1 -13 3 -13 4 0 7 -15 6 -32 -1 -71 33 -99 231 -189 77 -35
218 -87 260 -95 11 -2 40 -8 65 -14 25 -5 59 -12 75 -14 17 -2 30 -5 30 -6 0
-1 18 -3 40 -5 22 -2 67 -7 100 -10 76 -9 132 -12 325 -20 85 -3 178 -8 205
-10 28 -2 84 -7 125 -10 42 -3 84 -7 95 -9 11 -2 42 -7 68 -10 27 -4 59 -9 70
-12 62 -12 117 -21 187 -29 111 -13 126 -15 160 -20 147 -21 258 -59 346 -119
22 -14 92 -79 157 -143 101 -101 120 -115 128 -101 10 18 35 18 107 3 17 -4
22 -1 22 15 0 21 -119 259 -140 280 -3 3 -27 39 -55 80 -86 130 -279 302 -313
281 -6 -4 -10 -20 -9 -36 2 -27 -3 -33 -51 -55 -29 -14 -63 -38 -75 -53 -20
-25 -29 -29 -87 -30 l-65 -2 1 190 c2 318 8 489 16 501 4 6 38 12 75 13 102 4
134 8 179 20 43 12 134 67 134 82 0 14 -11 11 -76 -21z m-365 -191 c-12 -23
-13 -23 -33 -3 -21 20 -20 32 2 36 27 7 43 -11 31 -33z"/>
<path d="M1320 4609 c0 -13 32 -19 48 -9 19 11 18 12 -20 14 -16 1 -28 -1 -28
-5z"/>
<path d="M4250 4444 c0 -26 2 -45 5 -42 10 10 13 78 4 84 -5 3 -9 -16 -9 -42z"/>
<path d="M4250 4234 c0 -26 3 -44 6 -41 11 10 13 76 3 83 -5 3 -9 -16 -9 -42z"/>
<path d="M3295 3848 c22 -71 108 -130 210 -143 28 -3 64 -8 80 -11 78 -12 254
-12 271 1 36 26 -36 52 -196 71 -148 17 -216 34 -313 78 l-58 26 6 -22z"/>
<path d="M4937 3863 c-2 -1 -20 -5 -40 -7 -53 -7 -107 -35 -100 -52 18 -47
234 -36 303 16 39 29 14 43 -80 45 -44 1 -82 0 -83 -2z"/>
<path d="M5285 3460 c-14 -5 -15 -8 -4 -11 13 -5 81 6 69 11 -14 5 -49 6 -65
0z"/>
<path d="M3129 3435 c0 -5 -2 -17 -4 -26 -1 -9 1 -23 6 -30 5 -8 9 -9 10 -4 0
6 2 17 4 26 1 9 -1 23 -6 30 -5 8 -9 10 -10 4z"/>
<path d="M5070 3137 c-19 -7 -44 -18 -55 -25 -20 -11 -20 -11 2 -12 12 0 34 5
50 12 15 6 31 11 35 10 3 -1 9 5 12 13 6 18 2 18 -44 2z"/>
<path d="M5140 3010 l-25 -6 30 -16 c33 -17 55 -14 55 7 0 16 -28 23 -60 15z"/>
</g>
</svg>
